<svg width="1091" height="295" viewBox="0 0 1091 295" fill="none" xmlns="http://www.w3.org/2000/svg">
<path d="M166.329 0.416614C167.055 0.484427 167.743 0.557059 168.391 0.634559C169.068 0.712059 169.756 0.808904 170.438 0.905779L171.355 1.04142L170.74 1.7341C127.907 49.8858 85.0388 98.0036 42.1708 146.121L0 193.455V183.409L27.849 152.733C73.8855 102.029 119.922 51.3195 165.91 0.581285L166.08 0.392372L166.329 0.416614V0.416614ZM204.307 213.217C213.628 191.129 222.968 169.042 232.273 146.945L232.8 147.415C233.38 147.933 233.96 148.471 234.54 149.018C235.12 149.57 235.686 150.122 236.232 150.67L236.466 150.902C227.491 172.835 218.503 194.772 209.46 216.675L204.132 213.624L204.307 213.217V213.217ZM170.073 294.301L198.877 226.082L204.317 229.201C195.362 251.139 186.354 273.081 177.292 294.97C174.791 295.018 172.286 294.994 169.78 294.994L170.073 294.301V294.301ZM178.53 2.54782L180.309 3.02734L182.8 3.77815L162.751 27.7063L141.658 52.9276L137.266 50.4041L157.667 26.5002L178.223 2.46551L178.53 2.54782V2.54782ZM189.186 6.15644L190.79 6.85876L192.94 7.86624C128.74 89.5803 64.336 171.149 0 252.757V240.938C63.0393 162.789 126.118 84.4314 188.835 6.01111L189.186 6.15644V6.15644ZM198.867 11.0873L200.305 11.9689L202.158 13.175C179.676 43.6131 157.169 74.0319 134.648 104.431L129.905 101.714L130.247 101.263C148.965 76.4973 165.51 54.5649 180.051 35.2868L198.482 10.8549L198.867 11.0873ZM207.583 17.1711L208.899 18.2513L210.532 19.6608L203.406 29.9441L199.482 27.6917L207.164 16.832L207.583 17.1711ZM215.514 24.5094L216.718 25.8172L218.137 27.4398C193.339 65.7539 168.483 104.034 143.642 142.319L139.387 140.164L139.694 139.699C148.449 126.359 157.247 112.888 166.071 99.2629C174.845 85.7198 183.546 72.1767 192.14 58.6627L215.076 24.0444L215.514 24.5094V24.5094ZM118.845 180.556L44.6375 294.994H37.1889L37.7056 294.219C52.3102 272.19 65.9641 251.579 78.726 232.277C91.2052 213.411 103.056 195.45 114.414 178.197L114.662 177.819L119.147 180.091L118.845 180.556V180.556ZM222.709 33.3831L223.796 34.9912L224.996 36.8706C213.355 56.1487 201.69 75.422 190 94.671L185.545 92.1184C197.795 72.3365 210.045 52.5498 222.271 32.7534L222.709 33.3831ZM229.022 44.267C229.334 44.9258 229.646 45.5991 229.943 46.282C230.246 46.965 230.538 47.648 230.811 48.3212L230.899 48.5441C184.945 130.815 138.514 212.984 92.0875 294.994H83.5715C131.962 211.158 180.314 127.294 228.613 43.4L229.022 44.267ZM234.077 58.3284C234.306 59.2391 234.521 60.1642 234.721 61.1039C234.916 62.0387 235.096 62.9735 235.257 63.9035L235.286 64.0683C212.302 108.258 189.138 152.413 165.944 196.501L160.625 193.455C185.053 148.02 209.402 102.537 233.76 57.0691L234.077 58.3284V58.3284ZM236.31 79.5295L236.305 79.7233C236.168 83.5353 235.973 88.9119 235.037 90.8494L136.106 294.994H128.189C164.262 222.401 200.335 149.808 236.398 77.2046L236.31 79.5295ZM156.75 294.994H149.326C173.29 242.88 197.283 190.771 221.125 138.609L223.47 140.139C224.099 140.561 224.713 140.987 225.313 141.418L225.639 141.651C202.835 192.786 179.949 243.892 157.072 294.994H156.75V294.994ZM243.203 158.55C243.739 159.243 244.27 159.945 244.787 160.653C245.284 161.331 245.786 162.043 246.298 162.789L246.444 163.002C230.446 206.048 214.232 249.138 197.922 292.073L197.673 292.141C196.581 292.432 195.46 292.703 194.319 292.96C193.198 293.211 192.067 293.439 190.922 293.647L190.044 293.802C207.617 248.504 225.166 203.186 242.652 157.853L243.203 158.55V158.55ZM252.518 173.44C252.996 174.419 253.459 175.411 253.902 176.419C254.346 177.417 254.77 178.429 255.17 179.441L255.238 179.616C253.059 186.073 250.836 192.529 248.623 198.981L243.622 196.114C246.43 188.204 249.203 180.28 251.987 172.365L252.518 173.44V173.44ZM245.099 209.298L220.043 282.604L219.887 282.696C218.717 283.408 217.518 284.096 216.294 284.754C215.09 285.408 213.862 286.033 212.629 286.624L211.537 287.147C221.086 260.104 230.66 233.057 240.141 205.99L245.23 208.911L245.099 209.298V209.298ZM259.815 195.92C260.142 197.799 260.405 199.713 260.605 201.645C260.8 203.559 260.932 205.491 261 207.438V207.526C255.833 224.934 250.295 242.556 244.792 259.872L244.738 259.945C243.427 261.737 242.047 263.471 240.619 265.142C239.176 266.818 237.675 268.441 236.12 269.991L234.657 271.449L259.464 193.9L259.815 195.92V195.92ZM114.116 294.994H106.239C122.072 265.457 137.919 235.924 153.708 206.363L159.148 209.487C144.261 237.998 129.384 266.522 114.423 294.994H114.116V294.994ZM68.5283 294.994H60.0268C95.9288 237.034 131.889 179.102 167.665 121.069L172.383 123.772C137.948 180.89 103.392 237.959 68.811 294.994H68.5283ZM19.489 294.994H17.0175C16.1011 294.994 15.1944 294.921 14.3023 294.776C13.3956 294.631 12.5133 294.413 11.6602 294.127L11.0216 293.914C15.9109 287.011 20.7954 280.104 25.6652 273.192L32.2411 276.961C28.0781 282.972 23.9249 288.993 19.7522 294.994H19.489V294.994ZM1.03343 283.873C0.697076 282.962 0.433861 282.008 0.258372 281.025C0.0926331 280.07 0 279.087 0 278.084V273.885C39.6945 221.291 79.4378 168.732 119.084 116.105L123.978 118.909L123.646 119.36C95.8264 156.938 68.0359 194.539 40.2454 232.137L1.35517 284.749L1.03343 283.873V283.873ZM0 220.55V211.057C8.36495 201.277 16.7299 191.493 25.0851 181.699L30.3887 185.675C20.2738 197.77 10.1296 209.846 0 221.926V220.55V220.55ZM54.5964 147.153C80.4029 116.957 106.273 86.7951 132.031 56.5556L136.491 59.1131C110.777 89.8661 85.0192 120.6 59.2225 151.28L54.2503 147.56L54.5964 147.153ZM0 165.879V157.727L0.146264 157.582C9.89562 147.899 19.411 137.868 28.8873 127.885C33.4159 123.114 37.9396 118.347 42.4779 113.63L42.824 113.266L47.065 117.335C31.4319 133.983 15.6965 150.549 0 167.138V165.879V165.879ZM53.3924 102.286L66.5784 88.5777L71.5456 91.4257L57.1849 106.621L53.0463 102.644L53.3924 102.286ZM0 141.573V133.934C41.7467 93.2809 83.4301 52.4336 124.894 11.5378L129.096 13.9452C86.1112 56.9334 43.0288 99.8345 0 142.784V141.573ZM0 118.914V111.886C40.2551 74.6422 80.6077 37.4567 120.731 0.0775165H127.283C84.8681 40.0869 42.4487 80.0963 0 120.077V118.914V118.914ZM0 78.2993V72.0653C29.0336 48.1323 58.0282 24.117 86.974 0.0775165H94.1154C62.7566 26.5244 31.3734 52.9471 0 79.3794V78.2993V78.2993ZM0 59.8397V54.0175C14.9653 42.3344 29.9159 30.6077 44.8276 18.8567L49.4048 21.4869C32.9528 34.6377 16.4715 47.7545 0 60.8811V59.8397V59.8397ZM0 42.6589V37.1032L26.138 17.7378L49.9265 0.0775165H57.76L30.1402 20.9396L0 43.6664V42.6589V42.6589ZM0 26.3936V21.1721C10.0077 14.168 20.0106 7.13486 29.9841 0.0775165H38.1249C25.4215 9.17892 12.7132 18.2803 0 27.3672V26.3936ZM1.60379 9.85223C2.91508 7.0816 4.95753 4.71785 7.47774 3.00801C9.93458 1.3466 12.8545 0.300362 15.989 0.111456L17.8121 0L0.823851 11.5039L1.60379 9.85223V9.85223ZM68.9962 0.0775165H76.2887C69.8346 5.22158 63.3854 10.3705 56.9216 15.4951L52.4125 12.9086C57.8868 8.63642 63.3708 4.37392 68.8207 0.0775165H68.9962ZM104.406 0.0775165H111.07C105.405 5.11986 99.7456 10.1719 94.0764 15.2045L90.6641 11.9253L104.216 0.0775165H104.406V0.0775165ZM77.8827 29.6195C58.1549 47.183 38.4514 64.7755 18.6895 82.3051L13.5467 79.3503C33.9668 61.5495 54.3527 43.7003 74.7386 25.8559L78.2824 29.2611L77.8827 29.6195ZM136.71 0.0775165H142.862L134.112 8.80596L129.998 6.45191L136.51 0.0775165H136.71V0.0775165ZM151.997 0.0775165H157.857L157.062 0.920324C146.455 12.1336 132.406 27.0136 116.12 44.2622L97.5179 63.9666L92.8724 61.3025L122.442 30.5447L151.788 0.0775165H151.997V0.0775165ZM192.087 38.905L195.748 41.0023L195.44 41.448C166.295 83.5789 137.105 125.686 107.92 167.788L78.38 210.408L72.5108 207.036L111.294 152.258C138.007 114.526 164.725 76.7928 191.429 39.0455L191.687 38.6774L192.087 38.905V38.905Z" fill="url(#paint0_linear_1718_354)"/>
<path d="M395 87.4C402.867 88.8667 409.333 92.8 414.4 99.2C419.467 105.6 422 112.933 422 121.2C422 128.667 420.133 135.267 416.4 141C412.8 146.6 407.533 151 400.6 154.2C393.667 157.4 385.467 159 376 159H315.8V19.4H373.4C382.867 19.4 391 20.9333 397.8 24C404.733 27.0667 409.933 31.3333 413.4 36.8C417 42.2667 418.8 48.4667 418.8 55.4C418.8 63.5333 416.6 70.3333 412.2 75.8C407.933 81.2667 402.2 85.1333 395 87.4ZM343.8 77H369.4C376.067 77 381.2 75.5333 384.8 72.6C388.4 69.5333 390.2 65.2 390.2 59.6C390.2 54 388.4 49.6667 384.8 46.6C381.2 43.5333 376.067 42 369.4 42H343.8V77ZM372 136.2C378.8 136.2 384.067 134.6 387.8 131.4C391.667 128.2 393.6 123.667 393.6 117.8C393.6 111.8 391.6 107.133 387.6 103.8C383.6 100.333 378.2 98.6 371.4 98.6H343.8V136.2H372ZM553.316 101.2C553.316 105.2 553.049 108.8 552.516 112H471.516C472.182 120 474.982 126.267 479.916 130.8C484.849 135.333 490.916 137.6 498.116 137.6C508.516 137.6 515.916 133.133 520.316 124.2H550.516C547.316 134.867 541.182 143.667 532.116 150.6C523.049 157.4 511.916 160.8 498.716 160.8C488.049 160.8 478.449 158.467 469.916 153.8C461.516 149 454.916 142.267 450.116 133.6C445.449 124.933 443.116 114.933 443.116 103.6C443.116 92.1333 445.449 82.0667 450.116 73.4C454.782 64.7333 461.316 58.0667 469.716 53.4C478.116 48.7333 487.782 46.4 498.716 46.4C509.249 46.4 518.649 48.6667 526.916 53.2C535.316 57.7333 541.782 64.2 546.316 72.6C550.982 80.8667 553.316 90.4 553.316 101.2ZM524.316 93.2C524.182 86 521.582 80.2667 516.516 76C511.449 71.6 505.249 69.4 497.916 69.4C490.982 69.4 485.116 71.5333 480.316 75.8C475.649 79.9333 472.782 85.7333 471.716 93.2H524.316ZM572.553 103.2C572.553 92 574.753 82.0667 579.153 73.4C583.686 64.7333 589.753 58.0667 597.353 53.4C605.086 48.7333 613.686 46.4 623.153 46.4C631.42 46.4 638.62 48.0667 644.753 51.4C651.02 54.7333 656.02 58.9333 659.753 64V48.2H687.953V159H659.753V142.8C656.153 148 651.153 152.333 644.753 155.8C638.486 159.133 631.22 160.8 622.953 160.8C613.62 160.8 605.086 158.4 597.353 153.6C589.753 148.8 583.686 142.067 579.153 133.4C574.753 124.6 572.553 114.533 572.553 103.2ZM659.753 103.6C659.753 96.8 658.42 91 655.753 86.2C653.086 81.2667 649.486 77.5333 644.953 75C640.42 72.3333 635.553 71 630.353 71C625.153 71 620.353 72.2667 615.953 74.8C611.553 77.3333 607.953 81.0667 605.153 86C602.486 90.8 601.153 96.5333 601.153 103.2C601.153 109.867 602.486 115.733 605.153 120.8C607.953 125.733 611.553 129.533 615.953 132.2C620.486 134.867 625.286 136.2 630.353 136.2C635.553 136.2 640.42 134.933 644.953 132.4C649.486 129.733 653.086 126 655.753 121.2C658.42 116.267 659.753 110.4 659.753 103.6ZM858.9 46.6C872.5 46.6 883.433 50.8 891.7 59.2C900.1 67.4667 904.3 79.0667 904.3 94V159H876.3V97.8C876.3 89.1333 874.1 82.5333 869.7 78C865.3 73.3333 859.3 71 851.7 71C844.1 71 838.033 73.3333 833.5 78C829.1 82.5333 826.9 89.1333 826.9 97.8V159H798.9V97.8C798.9 89.1333 796.7 82.5333 792.3 78C787.9 73.3333 781.9 71 774.3 71C766.567 71 760.433 73.3333 755.9 78C751.5 82.5333 749.3 89.1333 749.3 97.8V159H721.3V48.2H749.3V61.6C752.9 56.9333 757.5 53.2667 763.1 50.6C768.833 47.9333 775.1 46.6 781.9 46.6C790.567 46.6 798.3 48.4667 805.1 52.2C811.9 55.8 817.167 61 820.9 67.8C824.5 61.4 829.7 56.2667 836.5 52.4C843.433 48.5333 850.9 46.6 858.9 46.6ZM1023.07 19.4V42H964.87V77.8H1009.47V100H964.87V159H936.87V19.4H1023.07ZM1063.13 35C1058.19 35 1054.06 33.4667 1050.73 30.4C1047.53 27.2 1045.93 23.2667 1045.93 18.6C1045.93 13.9333 1047.53 10.0667 1050.73 6.99999C1054.06 3.79999 1058.19 2.19999 1063.13 2.19999C1068.06 2.19999 1072.13 3.79999 1075.33 6.99999C1078.66 10.0667 1080.33 13.9333 1080.33 18.6C1080.33 23.2667 1078.66 27.2 1075.33 30.4C1072.13 33.4667 1068.06 35 1063.13 35ZM1076.93 48.2V159H1048.93V48.2H1076.93Z" fill="#11143B"/>
<path d="M358.91 212.071C358.91 215.266 358.145 218.258 356.637 221.07C355.13 223.86 352.745 226.11 349.528 227.819C346.311 229.529 342.239 230.384 337.334 230.384H327.323V253.332H315.331V193.6H337.334C341.946 193.6 345.883 194.388 349.146 195.985C352.408 197.582 354.838 199.787 356.457 202.577C358.1 205.367 358.91 208.539 358.91 212.071ZM336.817 220.71C340.124 220.71 342.576 219.968 344.173 218.46C345.771 216.93 346.581 214.816 346.581 212.071C346.581 206.266 343.319 203.342 336.817 203.342H327.323V220.71H336.817Z" fill="#11143B"/>
<path d="M364.287 229.439C364.287 224.647 365.255 220.395 367.167 216.705C369.079 212.993 371.666 210.136 374.951 208.133C378.236 206.131 381.903 205.141 385.953 205.141C389.485 205.141 392.59 205.861 395.244 207.278C397.899 208.718 400.014 210.496 401.611 212.678V205.906H413.693V253.332H401.611V246.402C400.081 248.63 397.944 250.474 395.244 251.914C392.522 253.377 389.395 254.097 385.863 254.097C381.881 254.097 378.236 253.084 374.951 251.014C371.666 248.967 369.079 246.065 367.167 242.33C365.255 238.596 364.287 234.298 364.287 229.439V229.439ZM401.611 229.619C401.611 226.717 401.049 224.219 399.901 222.127C398.754 220.057 397.224 218.46 395.289 217.335C393.332 216.233 391.262 215.67 389.035 215.67C386.808 215.67 384.76 216.21 382.87 217.29C380.981 218.392 379.451 219.967 378.281 222.037C377.111 224.129 376.526 226.604 376.526 229.439C376.526 232.296 377.111 234.793 378.281 236.931C379.451 239.091 381.003 240.71 382.915 241.858C384.828 243.005 386.875 243.568 389.035 243.568C391.262 243.568 393.332 243.028 395.289 241.903C397.224 240.8 398.754 239.203 399.901 237.111C401.049 235.018 401.611 232.544 401.611 229.619Z" fill="#11143B"/>
<path d="M470.77 205.906L441.41 275.762H428.654L438.935 252.14L419.925 205.906H433.356L445.595 239.046L458.014 205.906H470.77Z" fill="#11143B"/>
<path d="M536.081 205.231C541.886 205.231 546.588 207.008 550.165 210.585C553.72 214.14 555.497 219.112 555.497 225.524V253.332H543.528V227.144C543.528 223.432 542.583 220.597 540.694 218.617C538.804 216.66 536.239 215.67 532.999 215.67C529.737 215.67 527.15 216.66 525.237 218.617C523.348 220.597 522.38 223.432 522.38 227.144V253.332H510.389V227.144C510.389 223.432 509.466 220.597 507.576 218.617C505.687 216.66 503.122 215.67 499.86 215.67C496.552 215.67 493.943 216.66 492.03 218.617C490.118 220.597 489.173 223.432 489.173 227.144V253.332H477.182V205.906H489.173V211.643C490.703 209.641 492.705 208.088 495.113 206.941C497.542 205.793 500.22 205.231 503.122 205.231C506.834 205.231 510.141 206.018 513.043 207.593C515.968 209.146 518.218 211.395 519.815 214.298C521.345 211.553 523.595 209.371 526.542 207.706C529.467 206.063 532.662 205.231 536.081 205.231V205.231Z" fill="#11143B"/>
<path d="M610.977 228.584C610.977 230.316 610.842 231.846 610.617 233.219H575.97C576.24 236.638 577.455 239.316 579.547 241.273C581.662 243.208 584.272 244.175 587.354 244.175C591.786 244.175 594.958 242.263 596.848 238.438H609.762C608.39 243.005 605.78 246.762 601.888 249.687C598.018 252.634 593.248 254.097 587.601 254.097C583.034 254.097 578.94 253.084 575.318 251.059C571.695 249.035 568.861 246.177 566.836 242.465C564.811 238.753 563.799 234.478 563.799 229.619C563.799 224.714 564.811 220.395 566.813 216.705C568.793 212.993 571.605 210.136 575.183 208.133C578.782 206.131 582.922 205.141 587.601 205.141C592.101 205.141 596.151 206.108 599.705 208.043C603.283 210.001 606.05 212.745 608.007 216.323C609.987 219.877 610.977 223.972 610.977 228.584V228.584ZM598.558 225.164C598.49 222.082 597.388 219.63 595.228 217.762C593.046 215.918 590.391 214.995 587.264 214.995C584.294 214.995 581.797 215.895 579.772 217.673C577.747 219.472 576.51 221.97 576.037 225.164H598.558V225.164Z" fill="#11143B"/>
<path d="M645.961 205.231C651.631 205.231 656.176 207.008 659.663 210.585C663.15 214.14 664.882 219.112 664.882 225.524V253.332H652.913V227.144C652.913 223.364 651.968 220.485 650.079 218.46C648.189 216.435 645.624 215.423 642.384 215.423C639.077 215.423 636.467 216.435 634.555 218.46C632.643 220.485 631.675 223.364 631.675 227.144V253.332H619.706V205.906H631.675V211.823C633.273 209.753 635.32 208.156 637.795 206.986C640.269 205.816 643.014 205.231 645.961 205.231V205.231Z" fill="#11143B"/>
<path d="M690.215 215.761V238.686C690.215 240.283 690.597 241.453 691.385 242.151C692.15 242.871 693.454 243.231 695.277 243.231H700.834V253.332H693.297C683.195 253.332 678.156 248.428 678.156 238.619V215.761H672.509V205.906H678.156V194.185H690.215V205.906H700.834V215.761H690.215V215.761Z" fill="#11143B"/>
<path d="M773.412 212.071C773.412 215.266 772.67 218.258 771.14 221.07C769.632 223.86 767.27 226.11 764.053 227.819C760.813 229.529 756.764 230.384 751.837 230.384H741.825V253.332H729.856V193.6H751.837C756.471 193.6 760.408 194.388 763.648 195.985C766.91 197.582 769.34 199.787 770.982 202.577C772.602 205.367 773.412 208.539 773.412 212.071ZM751.342 220.71C754.649 220.71 757.101 219.968 758.698 218.46C760.296 216.93 761.083 214.816 761.083 212.071C761.083 206.266 757.844 203.342 751.342 203.342H741.825V220.71H751.342V220.71Z" fill="#11143B"/>
<path d="M793.863 213.263C795.415 210.765 797.417 208.786 799.915 207.368C802.389 205.951 805.224 205.231 808.419 205.231V217.807H805.247C801.49 217.807 798.655 218.685 796.743 220.462C794.83 222.239 793.863 225.322 793.863 229.709V253.332H781.894V205.906H793.863V213.263V213.263Z" fill="#11143B"/>
<path d="M837.532 254.097C832.964 254.097 828.847 253.084 825.203 251.059C821.558 249.035 818.678 246.177 816.608 242.465C814.516 238.753 813.481 234.478 813.481 229.619C813.481 224.782 814.539 220.485 816.676 216.773C818.813 213.083 821.738 210.203 825.45 208.178C829.162 206.153 833.302 205.141 837.869 205.141C842.436 205.141 846.576 206.153 850.288 208.178C853.978 210.203 856.902 213.083 859.04 216.773C861.199 220.485 862.257 224.782 862.257 229.619C862.257 234.478 861.154 238.753 858.972 242.465C856.767 246.177 853.798 249.035 850.063 251.059C846.328 253.084 842.144 254.097 837.532 254.097V254.097ZM837.532 243.658C839.691 243.658 841.739 243.14 843.651 242.083C845.563 241.025 847.071 239.428 848.218 237.336C849.365 235.221 849.928 232.656 849.928 229.619C849.928 225.119 848.758 221.655 846.373 219.225C844.011 216.795 841.109 215.58 837.689 215.58C834.269 215.58 831.412 216.795 829.095 219.225C826.778 221.655 825.63 225.119 825.63 229.619C825.63 234.141 826.755 237.606 829.005 240.013C831.255 242.443 834.089 243.658 837.532 243.658V243.658Z" fill="#11143B"/>
<path d="M885.025 215.761V238.686C885.025 240.283 885.408 241.453 886.173 242.151C886.96 242.871 888.242 243.231 890.065 243.231H895.644V253.332H888.107C878.006 253.332 872.966 248.428 872.966 238.619V215.761H867.319V205.906H872.966V194.185H885.025V205.906H895.644V215.761H885.025V215.761Z" fill="#11143B"/>
<path d="M925.342 254.097C920.775 254.097 916.657 253.084 913.013 251.059C909.368 249.035 906.488 246.177 904.419 242.465C902.326 238.753 901.291 234.478 901.291 229.619C901.291 224.782 902.349 220.485 904.508 216.773C906.646 213.083 909.571 210.203 913.26 208.178C916.972 206.153 921.112 205.141 925.679 205.141C930.246 205.141 934.386 206.153 938.098 208.178C941.81 210.203 944.735 213.083 946.872 216.773C949.009 220.485 950.067 224.782 950.067 229.619C950.067 234.478 948.987 238.753 946.782 242.465C944.577 246.177 941.608 249.035 937.873 251.059C934.138 253.084 929.954 254.097 925.342 254.097V254.097ZM925.342 243.658C927.501 243.658 929.549 243.14 931.461 242.083C933.373 241.025 934.903 239.428 936.028 237.336C937.176 235.221 937.738 232.656 937.738 229.619C937.738 225.119 936.568 221.655 934.206 219.225C931.821 216.795 928.941 215.58 925.499 215.58C922.079 215.58 919.222 216.795 916.905 219.225C914.588 221.655 913.44 225.119 913.44 229.619C913.44 234.141 914.565 237.606 916.815 240.013C919.065 242.443 921.922 243.658 925.342 243.658V243.658Z" fill="#11143B"/>
<path d="M955.803 229.619C955.803 224.714 956.816 220.417 958.796 216.75C960.798 213.06 963.565 210.203 967.097 208.178C970.652 206.153 974.702 205.141 979.269 205.141C985.141 205.141 990 206.603 993.847 209.551C997.695 212.498 1000.28 216.615 1001.61 221.925H988.673C987.998 219.855 986.828 218.257 985.208 217.088C983.588 215.918 981.564 215.333 979.179 215.333C975.759 215.333 973.037 216.57 971.035 219.045C969.055 221.542 968.042 225.052 968.042 229.619C968.042 234.141 969.055 237.628 971.035 240.103C973.037 242.578 975.759 243.838 979.179 243.838C984.016 243.838 987.188 241.655 988.673 237.336H1001.61C1000.28 242.465 997.695 246.537 993.802 249.575C989.933 252.589 985.073 254.097 979.269 254.097C974.702 254.097 970.652 253.084 967.097 251.059C963.565 249.035 960.798 246.177 958.796 242.51C956.816 238.821 955.803 234.523 955.803 229.619V229.619Z" fill="#11143B"/>
<path d="M1031.46 254.097C1026.9 254.097 1022.8 253.084 1019.14 251.059C1015.49 249.035 1012.63 246.177 1010.54 242.465C1008.45 238.753 1007.41 234.478 1007.41 229.619C1007.41 224.782 1008.49 220.485 1010.63 216.773C1012.77 213.083 1015.69 210.203 1019.41 208.178C1023.12 206.153 1027.26 205.141 1031.8 205.141C1036.37 205.141 1040.51 206.153 1044.22 208.178C1047.93 210.203 1050.86 213.083 1052.99 216.773C1055.13 220.485 1056.21 224.782 1056.21 229.619C1056.21 234.478 1055.11 238.753 1052.91 242.465C1050.72 246.177 1047.75 249.035 1044.02 251.059C1040.26 253.084 1036.1 254.097 1031.46 254.097V254.097ZM1031.46 243.658C1033.65 243.658 1035.67 243.14 1037.58 242.083C1039.5 241.025 1041.03 239.428 1042.17 237.336C1043.3 235.221 1043.88 232.656 1043.88 229.619C1043.88 225.119 1042.69 221.655 1040.33 219.225C1037.97 216.795 1035.06 215.58 1031.64 215.58C1028.22 215.58 1025.34 216.795 1023.05 219.225C1020.73 221.655 1019.56 225.119 1019.56 229.619C1019.56 234.141 1020.71 237.606 1022.96 240.013C1025.21 242.443 1028.04 243.658 1031.46 243.658V243.658Z" fill="#11143B"/>
<path d="M1077 190V253.332H1065.03V190H1077Z" fill="#11143B"/>
<defs>
<linearGradient id="paint0_linear_1718_354" x1="35.3268" y1="250.18" x2="224.353" y2="43.6152" gradientUnits="userSpaceOnUse">
<stop stop-color="#F72382"/>
<stop offset="1" stop-color="#42BAF9"/>
</linearGradient>
</defs>
</svg>
