<svg width="1413" height="630" viewBox="0 0 1413 630" fill="none" xmlns="http://www.w3.org/2000/svg">
<rect width="1413" height="630" rx="50" fill="white"/>
<path d="M334.329 168.417C335.055 168.484 335.743 168.557 336.391 168.635C337.068 168.712 337.756 168.809 338.438 168.906L339.355 169.041L338.74 169.734C295.907 217.886 253.039 266.004 210.171 314.121L168 361.455V351.409L195.849 320.733C241.885 270.029 287.922 219.32 333.91 168.581L334.08 168.392L334.329 168.417V168.417ZM372.307 381.217C381.628 359.129 390.968 337.042 400.273 314.945L400.8 315.415C401.38 315.933 401.96 316.471 402.54 317.018C403.12 317.57 403.686 318.122 404.232 318.67L404.466 318.902C395.491 340.835 386.503 362.772 377.46 384.675L372.132 381.624L372.307 381.217V381.217ZM338.073 462.301L366.877 394.082L372.317 397.201C363.362 419.139 354.354 441.081 345.292 462.97C342.791 463.018 340.286 462.994 337.78 462.994L338.073 462.301V462.301ZM346.53 170.548L348.309 171.027L350.8 171.778L330.751 195.706L309.658 220.928L305.266 218.404L325.667 194.5L346.223 170.466L346.53 170.548V170.548ZM357.186 174.156L358.79 174.859L360.94 175.866C296.74 257.58 232.336 339.149 168 420.757V408.938C231.039 330.789 294.118 252.431 356.835 174.011L357.186 174.156V174.156ZM366.867 179.087L368.305 179.969L370.158 181.175C347.676 211.613 325.169 242.032 302.648 272.431L297.905 269.714L298.247 269.263C316.965 244.497 333.51 222.565 348.051 203.287L366.482 178.855L366.867 179.087ZM375.583 185.171L376.899 186.251L378.532 187.661L371.406 197.944L367.482 195.692L375.164 184.832L375.583 185.171ZM383.514 192.509L384.718 193.817L386.137 195.44C361.339 233.754 336.483 272.034 311.642 310.319L307.387 308.164L307.694 307.699C316.449 294.359 325.247 280.888 334.071 267.263C342.845 253.72 351.546 240.177 360.14 226.663L383.076 192.044L383.514 192.509V192.509ZM286.845 348.556L212.637 462.994H205.189L205.706 462.219C220.31 440.19 233.964 419.579 246.726 400.277C259.205 381.411 271.056 363.45 282.414 346.197L282.662 345.819L287.147 348.091L286.845 348.556V348.556ZM390.709 201.383L391.796 202.991L392.996 204.871C381.355 224.149 369.69 243.422 358 262.671L353.545 260.118C365.795 240.337 378.045 220.55 390.271 200.753L390.709 201.383ZM397.022 212.267C397.334 212.926 397.646 213.599 397.943 214.282C398.246 214.965 398.538 215.648 398.811 216.321L398.899 216.544C352.945 298.815 306.514 380.984 260.088 462.994H251.571C299.962 379.158 348.314 295.294 396.613 211.4L397.022 212.267ZM402.077 226.328C402.306 227.239 402.521 228.164 402.721 229.104C402.916 230.039 403.096 230.974 403.257 231.904L403.286 232.068C380.302 276.258 357.138 320.413 333.944 364.501L328.625 361.455C353.053 316.02 377.402 270.537 401.76 225.069L402.077 226.328V226.328ZM404.31 247.529L404.305 247.723C404.168 251.535 403.973 256.912 403.037 258.849L304.106 462.994H296.189C332.262 390.401 368.335 317.808 404.398 245.205L404.31 247.529ZM324.75 462.994H317.326C341.29 410.88 365.283 358.771 389.125 306.609L391.47 308.139C392.099 308.561 392.713 308.987 393.313 309.418L393.639 309.651C370.835 360.786 347.949 411.892 325.072 462.994H324.75V462.994ZM411.203 326.55C411.739 327.243 412.27 327.945 412.787 328.653C413.284 329.331 413.786 330.043 414.298 330.789L414.444 331.002C398.446 374.048 382.232 417.138 365.922 460.073L365.673 460.141C364.581 460.432 363.46 460.703 362.319 460.96C361.198 461.211 360.067 461.439 358.922 461.647L358.044 461.802C375.617 416.504 393.166 371.186 410.652 325.853L411.203 326.55V326.55ZM420.518 341.44C420.996 342.419 421.459 343.411 421.902 344.419C422.346 345.417 422.77 346.429 423.17 347.441L423.238 347.616C421.059 354.073 418.836 360.529 416.623 366.981L411.622 364.114C414.43 356.204 417.203 348.28 419.987 340.365L420.518 341.44V341.44ZM413.099 377.298L388.043 450.604L387.887 450.696C386.717 451.408 385.518 452.096 384.294 452.754C383.09 453.408 381.862 454.033 380.629 454.624L379.537 455.147C389.086 428.104 398.66 401.057 408.141 373.99L413.23 376.911L413.099 377.298V377.298ZM427.815 363.92C428.142 365.799 428.405 367.713 428.605 369.645C428.8 371.559 428.932 373.491 429 375.438V375.526C423.833 392.934 418.295 410.556 412.792 427.872L412.738 427.945C411.427 429.737 410.047 431.471 408.619 433.142C407.176 434.818 405.675 436.441 404.12 437.991L402.657 439.449L427.464 361.9L427.815 363.92V363.92ZM282.116 462.994H274.239C290.072 433.457 305.919 403.924 321.708 374.363L327.148 377.487C312.261 405.998 297.384 434.522 282.423 462.994H282.116V462.994ZM236.528 462.994H228.027C263.929 405.034 299.889 347.102 335.665 289.069L340.383 291.772C305.948 348.89 271.392 405.959 236.811 462.994H236.528ZM187.489 462.994H185.018C184.101 462.994 183.194 462.921 182.302 462.776C181.396 462.631 180.513 462.413 179.66 462.127L179.022 461.914C183.911 455.011 188.795 448.104 193.665 441.192L200.241 444.961C196.078 450.972 191.925 456.993 187.752 462.994H187.489V462.994ZM169.033 451.873C168.697 450.962 168.434 450.008 168.258 449.025C168.093 448.07 168 447.087 168 446.084V441.885C207.694 389.291 247.438 336.732 287.084 284.105L291.978 286.909L291.646 287.36C263.826 324.938 236.036 362.539 208.245 400.137L169.355 452.749L169.033 451.873V451.873ZM168 388.55V379.057C176.365 369.277 184.73 359.493 193.085 349.699L198.389 353.675C188.274 365.77 178.13 377.846 168 389.926V388.55V388.55ZM222.596 315.153C248.403 284.957 274.273 254.795 300.031 224.556L304.491 227.113C278.777 257.866 253.019 288.6 227.222 319.28L222.25 315.56L222.596 315.153ZM168 333.879V325.727L168.146 325.582C177.896 315.899 187.411 305.868 196.887 295.885C201.416 291.114 205.94 286.347 210.478 281.63L210.824 281.266L215.065 285.335C199.432 301.983 183.696 318.549 168 335.138V333.879V333.879ZM221.392 270.286L234.578 256.578L239.546 259.426L225.185 274.621L221.046 270.644L221.392 270.286ZM168 309.573V301.934C209.747 261.281 251.43 220.434 292.894 179.538L297.096 181.945C254.111 224.933 211.029 267.835 168 310.784V309.573ZM168 286.914V279.886C208.255 242.642 248.608 205.457 288.731 168.078H295.283C252.868 208.087 210.449 248.096 168 288.077V286.914V286.914ZM168 246.299V240.065C197.034 216.132 226.028 192.117 254.974 168.078H262.115C230.757 194.524 199.373 220.947 168 247.379V246.299V246.299ZM168 227.84V222.017C182.965 210.334 197.916 198.608 212.828 186.857L217.405 189.487C200.953 202.638 184.472 215.755 168 228.881V227.84V227.84ZM168 210.659V205.103L194.138 185.738L217.926 168.078H225.76L198.14 188.94L168 211.666V210.659V210.659ZM168 194.394V189.172C178.008 182.168 188.011 175.135 197.984 168.078H206.125C193.421 177.179 180.713 186.28 168 195.367V194.394ZM169.604 177.852C170.915 175.082 172.958 172.718 175.478 171.008C177.935 169.347 180.855 168.3 183.989 168.111L185.812 168L168.824 179.504L169.604 177.852V177.852ZM236.996 168.078H244.289C237.835 173.222 231.385 178.37 224.922 183.495L220.413 180.909C225.887 176.636 231.371 172.374 236.821 168.078H236.996ZM272.406 168.078H279.07C273.405 173.12 267.746 178.172 262.076 183.205L258.664 179.925L272.216 168.078H272.406V168.078ZM245.883 197.62C226.155 215.183 206.451 232.776 186.689 250.305L181.547 247.35C201.967 229.55 222.353 211.7 242.739 193.856L246.282 197.261L245.883 197.62ZM304.71 168.078H310.862L302.112 176.806L297.998 174.452L304.51 168.078H304.71V168.078ZM319.997 168.078H325.857L325.062 168.92C314.455 180.134 300.406 195.014 284.12 212.262L265.518 231.967L260.872 229.303L290.442 198.545L319.788 168.078H319.997V168.078ZM360.087 206.905L363.748 209.002L363.44 209.448C334.295 251.579 305.105 293.686 275.92 335.788L246.38 378.408L240.511 375.036L279.294 320.258C306.007 282.526 332.725 244.793 359.429 207.046L359.687 206.677L360.087 206.905V206.905Z" fill="url(#paint0_linear_1718_353)"/>
<path d="M563 255.4C570.867 256.867 577.333 260.8 582.4 267.2C587.467 273.6 590 280.933 590 289.2C590 296.667 588.133 303.267 584.4 309C580.8 314.6 575.533 319 568.6 322.2C561.667 325.4 553.467 327 544 327H483.8V187.4H541.4C550.867 187.4 559 188.933 565.8 192C572.733 195.067 577.933 199.333 581.4 204.8C585 210.267 586.8 216.467 586.8 223.4C586.8 231.533 584.6 238.333 580.2 243.8C575.933 249.267 570.2 253.133 563 255.4ZM511.8 245H537.4C544.067 245 549.2 243.533 552.8 240.6C556.4 237.533 558.2 233.2 558.2 227.6C558.2 222 556.4 217.667 552.8 214.6C549.2 211.533 544.067 210 537.4 210H511.8V245ZM540 304.2C546.8 304.2 552.067 302.6 555.8 299.4C559.667 296.2 561.6 291.667 561.6 285.8C561.6 279.8 559.6 275.133 555.6 271.8C551.6 268.333 546.2 266.6 539.4 266.6H511.8V304.2H540ZM721.316 269.2C721.316 273.2 721.049 276.8 720.516 280H639.516C640.182 288 642.982 294.267 647.916 298.8C652.849 303.333 658.916 305.6 666.116 305.6C676.516 305.6 683.916 301.133 688.316 292.2H718.516C715.316 302.867 709.182 311.667 700.116 318.6C691.049 325.4 679.916 328.8 666.716 328.8C656.049 328.8 646.449 326.467 637.916 321.8C629.516 317 622.916 310.267 618.116 301.6C613.449 292.933 611.116 282.933 611.116 271.6C611.116 260.133 613.449 250.067 618.116 241.4C622.782 232.733 629.316 226.067 637.716 221.4C646.116 216.733 655.782 214.4 666.716 214.4C677.249 214.4 686.649 216.667 694.916 221.2C703.316 225.733 709.782 232.2 714.316 240.6C718.982 248.867 721.316 258.4 721.316 269.2ZM692.316 261.2C692.182 254 689.582 248.267 684.516 244C679.449 239.6 673.249 237.4 665.916 237.4C658.982 237.4 653.116 239.533 648.316 243.8C643.649 247.933 640.782 253.733 639.716 261.2H692.316ZM740.553 271.2C740.553 260 742.753 250.067 747.153 241.4C751.686 232.733 757.753 226.067 765.353 221.4C773.086 216.733 781.686 214.4 791.153 214.4C799.42 214.4 806.62 216.067 812.753 219.4C819.02 222.733 824.02 226.933 827.753 232V216.2H855.953V327H827.753V310.8C824.153 316 819.153 320.333 812.753 323.8C806.486 327.133 799.22 328.8 790.953 328.8C781.62 328.8 773.086 326.4 765.353 321.6C757.753 316.8 751.686 310.067 747.153 301.4C742.753 292.6 740.553 282.533 740.553 271.2ZM827.753 271.6C827.753 264.8 826.42 259 823.753 254.2C821.086 249.267 817.486 245.533 812.953 243C808.42 240.333 803.553 239 798.353 239C793.153 239 788.353 240.267 783.953 242.8C779.553 245.333 775.953 249.067 773.153 254C770.486 258.8 769.153 264.533 769.153 271.2C769.153 277.867 770.486 283.733 773.153 288.8C775.953 293.733 779.553 297.533 783.953 300.2C788.486 302.867 793.286 304.2 798.353 304.2C803.553 304.2 808.42 302.933 812.953 300.4C817.486 297.733 821.086 294 823.753 289.2C826.42 284.267 827.753 278.4 827.753 271.6ZM1026.9 214.6C1040.5 214.6 1051.43 218.8 1059.7 227.2C1068.1 235.467 1072.3 247.067 1072.3 262V327H1044.3V265.8C1044.3 257.133 1042.1 250.533 1037.7 246C1033.3 241.333 1027.3 239 1019.7 239C1012.1 239 1006.03 241.333 1001.5 246C997.1 250.533 994.9 257.133 994.9 265.8V327H966.9V265.8C966.9 257.133 964.7 250.533 960.3 246C955.9 241.333 949.9 239 942.3 239C934.567 239 928.433 241.333 923.9 246C919.5 250.533 917.3 257.133 917.3 265.8V327H889.3V216.2H917.3V229.6C920.9 224.933 925.5 221.267 931.1 218.6C936.833 215.933 943.1 214.6 949.9 214.6C958.567 214.6 966.3 216.467 973.1 220.2C979.9 223.8 985.167 229 988.9 235.8C992.5 229.4 997.7 224.267 1004.5 220.4C1011.43 216.533 1018.9 214.6 1026.9 214.6ZM1191.07 187.4V210H1132.87V245.8H1177.47V268H1132.87V327H1104.87V187.4H1191.07ZM1231.13 203C1226.19 203 1222.06 201.467 1218.73 198.4C1215.53 195.2 1213.93 191.267 1213.93 186.6C1213.93 181.933 1215.53 178.067 1218.73 175C1222.06 171.8 1226.19 170.2 1231.13 170.2C1236.06 170.2 1240.13 171.8 1243.33 175C1246.66 178.067 1248.33 181.933 1248.33 186.6C1248.33 191.267 1246.66 195.2 1243.33 198.4C1240.13 201.467 1236.06 203 1231.13 203ZM1244.93 216.2V327H1216.93V216.2H1244.93Z" fill="#11143B"/>
<path d="M526.91 380.071C526.91 383.266 526.145 386.258 524.637 389.07C523.13 391.86 520.745 394.11 517.528 395.819C514.311 397.529 510.239 398.384 505.334 398.384H495.323V421.332H483.331V361.6H505.334C509.946 361.6 513.883 362.388 517.146 363.985C520.408 365.582 522.838 367.787 524.457 370.577C526.1 373.367 526.91 376.539 526.91 380.071ZM504.817 388.71C508.124 388.71 510.576 387.968 512.173 386.46C513.771 384.93 514.581 382.816 514.581 380.071C514.581 374.266 511.319 371.342 504.817 371.342H495.323V388.71H504.817Z" fill="#11143B"/>
<path d="M532.287 397.439C532.287 392.647 533.255 388.395 535.167 384.705C537.079 380.993 539.666 378.136 542.951 376.133C546.236 374.131 549.903 373.141 553.953 373.141C557.485 373.141 560.59 373.861 563.244 375.278C565.899 376.718 568.014 378.496 569.611 380.678V373.906H581.693V421.332H569.611V414.402C568.081 416.63 565.944 418.474 563.244 419.914C560.522 421.377 557.395 422.097 553.863 422.097C549.881 422.097 546.236 421.084 542.951 419.014C539.666 416.967 537.079 414.065 535.167 410.33C533.255 406.596 532.287 402.298 532.287 397.439V397.439ZM569.611 397.619C569.611 394.717 569.049 392.219 567.901 390.127C566.754 388.057 565.224 386.46 563.289 385.335C561.332 384.233 559.262 383.67 557.035 383.67C554.808 383.67 552.76 384.21 550.87 385.29C548.981 386.392 547.451 387.967 546.281 390.037C545.111 392.129 544.526 394.604 544.526 397.439C544.526 400.296 545.111 402.793 546.281 404.931C547.451 407.091 549.003 408.71 550.915 409.858C552.828 411.005 554.875 411.568 557.035 411.568C559.262 411.568 561.332 411.028 563.289 409.903C565.224 408.8 566.754 407.203 567.901 405.111C569.049 403.018 569.611 400.544 569.611 397.619Z" fill="#11143B"/>
<path d="M638.77 373.906L609.41 443.762H596.654L606.935 420.14L587.925 373.906H601.356L613.595 407.046L626.014 373.906H638.77Z" fill="#11143B"/>
<path d="M704.081 373.231C709.886 373.231 714.588 375.008 718.165 378.585C721.72 382.14 723.497 387.112 723.497 393.524V421.332H711.528V395.144C711.528 391.432 710.583 388.597 708.694 386.617C706.804 384.66 704.239 383.67 700.999 383.67C697.737 383.67 695.15 384.66 693.237 386.617C691.348 388.597 690.38 391.432 690.38 395.144V421.332H678.389V395.144C678.389 391.432 677.466 388.597 675.576 386.617C673.687 384.66 671.122 383.67 667.86 383.67C664.552 383.67 661.943 384.66 660.03 386.617C658.118 388.597 657.173 391.432 657.173 395.144V421.332H645.182V373.906H657.173V379.643C658.703 377.641 660.705 376.088 663.113 374.941C665.542 373.793 668.22 373.231 671.122 373.231C674.834 373.231 678.141 374.018 681.043 375.593C683.968 377.146 686.218 379.395 687.815 382.298C689.345 379.553 691.595 377.371 694.542 375.706C697.467 374.063 700.662 373.231 704.081 373.231V373.231Z" fill="#11143B"/>
<path d="M778.977 396.584C778.977 398.316 778.842 399.846 778.617 401.219H743.97C744.24 404.638 745.455 407.316 747.547 409.273C749.662 411.208 752.272 412.175 755.354 412.175C759.786 412.175 762.958 410.263 764.848 406.438H777.762C776.39 411.005 773.78 414.762 769.888 417.687C766.018 420.634 761.248 422.097 755.601 422.097C751.034 422.097 746.94 421.084 743.318 419.059C739.695 417.035 736.861 414.177 734.836 410.465C732.811 406.753 731.799 402.478 731.799 397.619C731.799 392.714 732.811 388.395 734.813 384.705C736.793 380.993 739.605 378.136 743.183 376.133C746.782 374.131 750.922 373.141 755.601 373.141C760.101 373.141 764.151 374.108 767.705 376.043C771.283 378.001 774.05 380.745 776.007 384.323C777.987 387.877 778.977 391.972 778.977 396.584V396.584ZM766.558 393.164C766.49 390.082 765.388 387.63 763.228 385.762C761.046 383.918 758.391 382.995 755.264 382.995C752.294 382.995 749.797 383.895 747.772 385.673C745.747 387.472 744.51 389.97 744.037 393.164H766.558V393.164Z" fill="#11143B"/>
<path d="M813.961 373.231C819.631 373.231 824.176 375.008 827.663 378.585C831.15 382.14 832.882 387.112 832.882 393.524V421.332H820.913V395.144C820.913 391.364 819.968 388.485 818.079 386.46C816.189 384.435 813.624 383.423 810.384 383.423C807.077 383.423 804.467 384.435 802.555 386.46C800.643 388.485 799.675 391.364 799.675 395.144V421.332H787.706V373.906H799.675V379.823C801.273 377.753 803.32 376.156 805.795 374.986C808.269 373.816 811.014 373.231 813.961 373.231V373.231Z" fill="#11143B"/>
<path d="M858.215 383.761V406.686C858.215 408.283 858.597 409.453 859.385 410.151C860.15 410.871 861.454 411.231 863.277 411.231H868.834V421.332H861.297C851.195 421.332 846.156 416.428 846.156 406.619V383.761H840.509V373.906H846.156V362.185H858.215V373.906H868.834V383.761H858.215V383.761Z" fill="#11143B"/>
<path d="M941.412 380.071C941.412 383.266 940.67 386.258 939.14 389.07C937.632 391.86 935.27 394.11 932.053 395.819C928.813 397.529 924.764 398.384 919.837 398.384H909.825V421.332H897.856V361.6H919.837C924.471 361.6 928.408 362.388 931.648 363.985C934.91 365.582 937.34 367.787 938.982 370.577C940.602 373.367 941.412 376.539 941.412 380.071ZM919.342 388.71C922.649 388.71 925.101 387.968 926.698 386.46C928.296 384.93 929.083 382.816 929.083 380.071C929.083 374.266 925.844 371.342 919.342 371.342H909.825V388.71H919.342V388.71Z" fill="#11143B"/>
<path d="M961.863 381.263C963.415 378.765 965.417 376.786 967.915 375.368C970.389 373.951 973.224 373.231 976.419 373.231V385.807H973.247C969.49 385.807 966.655 386.685 964.743 388.462C962.83 390.239 961.863 393.322 961.863 397.709V421.332H949.894V373.906H961.863V381.263V381.263Z" fill="#11143B"/>
<path d="M1005.53 422.097C1000.96 422.097 996.847 421.084 993.203 419.059C989.558 417.035 986.678 414.177 984.608 410.465C982.516 406.753 981.481 402.478 981.481 397.619C981.481 392.782 982.539 388.485 984.676 384.773C986.813 381.083 989.738 378.203 993.45 376.178C997.162 374.153 1001.3 373.141 1005.87 373.141C1010.44 373.141 1014.58 374.153 1018.29 376.178C1021.98 378.203 1024.9 381.083 1027.04 384.773C1029.2 388.485 1030.26 392.782 1030.26 397.619C1030.26 402.478 1029.15 406.753 1026.97 410.465C1024.77 414.177 1021.8 417.035 1018.06 419.059C1014.33 421.084 1010.14 422.097 1005.53 422.097V422.097ZM1005.53 411.658C1007.69 411.658 1009.74 411.14 1011.65 410.083C1013.56 409.025 1015.07 407.428 1016.22 405.336C1017.37 403.221 1017.93 400.656 1017.93 397.619C1017.93 393.119 1016.76 389.655 1014.37 387.225C1012.01 384.795 1009.11 383.58 1005.69 383.58C1002.27 383.58 999.412 384.795 997.095 387.225C994.778 389.655 993.63 393.119 993.63 397.619C993.63 402.141 994.755 405.606 997.005 408.013C999.255 410.443 1002.09 411.658 1005.53 411.658V411.658Z" fill="#11143B"/>
<path d="M1053.03 383.761V406.686C1053.03 408.283 1053.41 409.453 1054.17 410.151C1054.96 410.871 1056.24 411.231 1058.06 411.231H1063.64V421.332H1056.11C1046.01 421.332 1040.97 416.428 1040.97 406.619V383.761H1035.32V373.906H1040.97V362.185H1053.03V373.906H1063.64V383.761H1053.03V383.761Z" fill="#11143B"/>
<path d="M1093.34 422.097C1088.77 422.097 1084.66 421.084 1081.01 419.059C1077.37 417.035 1074.49 414.177 1072.42 410.465C1070.33 406.753 1069.29 402.478 1069.29 397.619C1069.29 392.782 1070.35 388.485 1072.51 384.773C1074.65 381.083 1077.57 378.203 1081.26 376.178C1084.97 374.153 1089.11 373.141 1093.68 373.141C1098.25 373.141 1102.39 374.153 1106.1 376.178C1109.81 378.203 1112.73 381.083 1114.87 384.773C1117.01 388.485 1118.07 392.782 1118.07 397.619C1118.07 402.478 1116.99 406.753 1114.78 410.465C1112.58 414.177 1109.61 417.035 1105.87 419.059C1102.14 421.084 1097.95 422.097 1093.34 422.097V422.097ZM1093.34 411.658C1095.5 411.658 1097.55 411.14 1099.46 410.083C1101.37 409.025 1102.9 407.428 1104.03 405.336C1105.18 403.221 1105.74 400.656 1105.74 397.619C1105.74 393.119 1104.57 389.655 1102.21 387.225C1099.82 384.795 1096.94 383.58 1093.5 383.58C1090.08 383.58 1087.22 384.795 1084.9 387.225C1082.59 389.655 1081.44 393.119 1081.44 397.619C1081.44 402.141 1082.57 405.606 1084.81 408.013C1087.06 410.443 1089.92 411.658 1093.34 411.658V411.658Z" fill="#11143B"/>
<path d="M1123.8 397.619C1123.8 392.714 1124.82 388.417 1126.8 384.75C1128.8 381.06 1131.57 378.203 1135.1 376.178C1138.65 374.153 1142.7 373.141 1147.27 373.141C1153.14 373.141 1158 374.603 1161.85 377.551C1165.69 380.498 1168.28 384.615 1169.61 389.925H1156.67C1156 387.855 1154.83 386.257 1153.21 385.088C1151.59 383.918 1149.56 383.333 1147.18 383.333C1143.76 383.333 1141.04 384.57 1139.03 387.045C1137.05 389.542 1136.04 393.052 1136.04 397.619C1136.04 402.141 1137.05 405.628 1139.03 408.103C1141.04 410.578 1143.76 411.838 1147.18 411.838C1152.02 411.838 1155.19 409.655 1156.67 405.336H1169.61C1168.28 410.465 1165.69 414.537 1161.8 417.575C1157.93 420.589 1153.07 422.097 1147.27 422.097C1142.7 422.097 1138.65 421.084 1135.1 419.059C1131.57 417.035 1128.8 414.177 1126.8 410.51C1124.82 406.821 1123.8 402.523 1123.8 397.619V397.619Z" fill="#11143B"/>
<path d="M1199.46 422.097C1194.9 422.097 1190.8 421.084 1187.14 419.059C1183.49 417.035 1180.63 414.177 1178.54 410.465C1176.45 406.753 1175.41 402.478 1175.41 397.619C1175.41 392.782 1176.49 388.485 1178.63 384.773C1180.77 381.083 1183.69 378.203 1187.41 376.178C1191.12 374.153 1195.26 373.141 1199.8 373.141C1204.37 373.141 1208.51 374.153 1212.22 376.178C1215.93 378.203 1218.86 381.083 1220.99 384.773C1223.13 388.485 1224.21 392.782 1224.21 397.619C1224.21 402.478 1223.11 406.753 1220.91 410.465C1218.72 414.177 1215.75 417.035 1212.02 419.059C1208.26 421.084 1204.1 422.097 1199.46 422.097V422.097ZM1199.46 411.658C1201.65 411.658 1203.67 411.14 1205.58 410.083C1207.5 409.025 1209.03 407.428 1210.17 405.336C1211.3 403.221 1211.88 400.656 1211.88 397.619C1211.88 393.119 1210.69 389.655 1208.33 387.225C1205.97 384.795 1203.06 383.58 1199.64 383.58C1196.22 383.58 1193.34 384.795 1191.05 387.225C1188.73 389.655 1187.56 393.119 1187.56 397.619C1187.56 402.141 1188.71 405.606 1190.96 408.013C1193.21 410.443 1196.04 411.658 1199.46 411.658V411.658Z" fill="#11143B"/>
<path d="M1245 358V421.332H1233.03V358H1245Z" fill="#11143B"/>
<defs>
<linearGradient id="paint0_linear_1718_353" x1="203.327" y1="418.18" x2="392.353" y2="211.615" gradientUnits="userSpaceOnUse">
<stop stop-color="#F72382"/>
<stop offset="1" stop-color="#42BAF9"/>
</linearGradient>
</defs>
</svg>
